<?xml version="1.0" standalone="no"?>
<!DOCTYPE svg PUBLIC "-//W3C//DTD SVG 20010904//EN"
 "http://www.w3.org/TR/2001/REC-SVG-20010904/DTD/svg10.dtd">
<svg version="1.0" xmlns="http://www.w3.org/2000/svg"
 width="640.000000pt" height="640.000000pt" viewBox="0 0 640.000000 640.000000"
 preserveAspectRatio="xMidYMid meet">

<g transform="translate(0.000000,640.000000) scale(0.100000,-0.100000)"
fill="#000000" stroke="none">
<path d="M2417 5840 c-61 -11 -183 -47 -220 -67 -58 -29 -235 -170 -330 -262
-150 -145 -249 -303 -301 -483 -16 -55 -19 -82 -30 -233 -16 -211 -17 -293 -6
-415 12 -139 37 -271 66 -337 9 -21 17 -43 18 -50 5 -30 85 -161 130 -211 149
-171 358 -253 610 -239 111 6 200 30 237 63 8 8 20 14 25 14 13 0 187 176 254
257 60 72 124 205 139 289 28 146 30 437 7 1064 -7 189 -50 333 -136 446 -39
52 -147 135 -207 160 -36 15 -176 17 -256 4z"/>
<path d="M3770 5826 c-174 -90 -271 -225 -305 -426 -23 -134 -37 -416 -38
-760 -2 -546 34 -651 326 -941 74 -75 183 -137 259 -148 60 -8 242 -8 307 2
58 8 181 58 247 99 102 65 228 212 270 315 9 21 22 52 29 68 16 40 52 192 66
280 15 99 12 389 -5 525 -21 165 -51 271 -108 380 -27 52 -55 100 -61 105 -7
6 -31 35 -55 66 -62 83 -199 209 -357 331 -97 74 -283 128 -442 128 -72 0 -96
-5 -133 -24z"/>
<path d="M545 4440 c-22 -10 -57 -35 -77 -56 -36 -39 -118 -183 -118 -209 0
-7 -16 -62 -36 -122 -20 -59 -38 -121 -41 -138 -2 -16 -10 -50 -18 -75 -25
-80 -47 -173 -51 -220 -16 -169 -18 -244 -11 -357 8 -130 34 -261 68 -340 10
-23 16 -43 14 -43 -3 0 16 -42 41 -92 54 -107 143 -227 212 -285 65 -55 180
-133 196 -133 8 0 34 -9 58 -20 123 -54 330 -70 450 -36 215 63 359 210 431
441 22 69 30 247 18 385 -12 140 -54 267 -138 416 -31 55 -68 122 -84 149 -15
28 -36 59 -46 70 -10 11 -36 45 -58 75 -98 137 -200 255 -325 380 -75 74 -142
140 -150 145 -112 79 -247 105 -335 65z"/>
<path d="M5725 4445 c-49 -11 -87 -28 -109 -47 -6 -5 -25 -19 -43 -32 -68 -48
-204 -189 -323 -336 -43 -52 -60 -72 -99 -115 -39 -43 -190 -275 -234 -360
-116 -223 -142 -328 -142 -565 1 -118 5 -160 23 -225 62 -229 226 -397 441
-455 105 -28 301 -14 418 30 101 38 216 104 270 154 12 12 27 26 33 31 70 64
180 221 180 258 0 8 4 18 9 21 9 6 60 127 66 156 2 8 12 51 23 95 61 242 57
413 -17 735 -11 47 -31 121 -45 165 -13 44 -32 109 -41 145 -26 99 -95 238
-146 290 -66 68 -146 85 -264 55z"/>
<path d="M3048 3389 c-61 -9 -166 -37 -183 -48 -5 -4 -29 -13 -51 -19 -51 -15
-232 -135 -294 -195 -65 -62 -117 -128 -190 -237 -155 -232 -333 -417 -576
-596 -170 -126 -268 -214 -330 -299 -24 -33 -49 -66 -55 -73 -15 -18 -77 -156
-99 -219 -10 -28 -22 -76 -27 -105 -11 -69 -10 -377 2 -403 4 -11 10 -31 12
-44 9 -52 79 -209 124 -275 129 -194 321 -343 524 -409 49 -16 62 -19 175 -38
175 -29 324 -1 622 117 48 19 133 47 190 61 89 23 123 27 258 27 113 1 175 -4
230 -16 41 -10 89 -20 107 -23 17 -3 71 -19 120 -36 326 -116 444 -136 689
-115 64 6 204 51 289 93 116 58 271 188 343 288 20 28 42 55 48 62 13 13 73
134 98 196 27 66 56 244 56 340 0 142 -40 329 -92 427 -10 19 -18 39 -18 45 0
13 -82 140 -109 168 -111 116 -132 133 -262 207 -144 81 -254 164 -322 243
-51 59 -211 269 -309 407 -53 74 -136 163 -219 233 -60 50 -264 177 -286 177
-7 0 -45 11 -85 24 -124 41 -255 54 -380 35z m283 -405 c103 -20 114 -22 114
-24 0 -1 11 -4 25 -6 33 -6 198 -82 230 -106 106 -79 128 -100 140 -127 18
-45 8 -98 -31 -158 -19 -29 -54 -88 -78 -130 -24 -43 -67 -118 -96 -168 -29
-49 -62 -107 -73 -128 l-20 -38 -36 63 c-20 35 -41 70 -46 78 -5 8 -27 47 -49
85 -21 39 -50 88 -63 110 -14 22 -61 103 -105 180 -45 77 -90 156 -102 175
-34 57 -61 120 -61 144 0 12 7 32 16 44 13 19 24 22 83 22 38 0 106 -7 152
-16z m-383 -59 c16 -13 46 -56 66 -95 20 -38 42 -70 48 -70 6 0 8 -3 5 -6 -4
-4 1 -19 11 -33 9 -14 31 -52 47 -83 17 -32 33 -58 38 -58 4 0 7 -4 7 -8 0 -5
22 -49 50 -98 27 -49 50 -93 50 -97 0 -4 -209 -6 -464 -5 l-464 3 -25 23 c-14
13 -27 32 -30 43 -10 38 125 225 220 305 50 43 178 134 187 134 3 0 33 13 68
29 103 48 144 52 186 16z m1065 -394 c45 -54 117 -242 132 -348 30 -194 13
-375 -39 -419 l-27 -24 -320 0 -321 0 30 53 c16 28 54 95 84 147 132 226 166
289 162 294 -2 3 -1 4 3 1 4 -3 23 24 42 60 96 174 134 236 154 250 34 24 72
19 100 -14z m-1113 -249 c0 -11 -111 -215 -121 -222 -4 -3 -21 -32 -39 -65
-38 -73 -53 -98 -61 -105 -3 -3 -18 -30 -33 -60 -16 -30 -34 -62 -42 -71 -8
-8 -14 -18 -14 -21 0 -4 -20 -41 -45 -82 -25 -42 -45 -80 -46 -84 -1 -12 -64
-95 -80 -105 -9 -5 -32 -7 -52 -3 -42 8 -64 41 -121 178 -60 144 -83 372 -52
515 17 78 37 110 79 122 40 11 627 14 627 3z m-7 -522 c16 -30 36 -62 43 -71
8 -8 14 -18 14 -21 0 -6 85 -155 123 -215 15 -24 27 -46 27 -50 0 -5 16 -32
35 -60 19 -29 35 -55 35 -58 0 -3 20 -40 45 -83 51 -87 58 -137 25 -167 -18
-16 -33 -17 -142 -12 -68 4 -145 13 -173 21 -166 47 -306 120 -385 201 -42 43
-45 49 -44 98 0 40 8 64 34 107 42 70 67 113 98 170 14 25 39 68 57 95 17 28
35 58 38 67 4 10 23 43 42 74 l36 56 31 -48 c17 -27 45 -74 61 -104z m1126
-133 c47 -24 47 -57 -2 -138 -36 -61 -139 -185 -182 -220 -5 -5 -26 -22 -45
-40 -59 -52 -191 -123 -265 -141 -93 -24 -123 -14 -168 55 -35 53 -117 196
-117 202 0 2 -12 21 -26 42 -14 21 -40 65 -56 98 -17 33 -34 62 -38 65 -4 3
-17 24 -29 48 l-21 42 462 0 c348 0 469 -3 487 -13z"/>
</g>
</svg>
